<svg width="58" height="44" viewBox="0 0 58 44" fill="none" xmlns="http://www.w3.org/2000/svg">
<g id="Logo" clip-path="url(#clip0_1919_45138)">
<path id="Vector" d="M38.3322 2.27865L35.8694 5.31196H19.3888L13.4276 12.6519L9.36924 17.6509L7.13611 20.3987H23.6156L19.4522 25.5257V25.5322H3.15758C0.506694 25.5322 -0.956541 22.4563 0.714482 20.3987L2.9334 17.664L6.99175 12.6661L12.9661 5.30868L17.2793 -0.00317353H37.2484C37.5129 -0.00334713 37.772 0.0715566 37.9957 0.212831C38.2193 0.354105 38.3983 0.55595 38.5118 0.794916C38.6253 1.03388 38.6686 1.30015 38.6368 1.5628C38.6051 1.82544 38.4994 2.07367 38.3322 2.27865Z" fill="#E14446"/>
<path id="Vector_2" d="M35.269 25.5277L39.3755 25.5342L39.3809 25.5277L43.5443 20.3985L45.8551 17.5544L51.5079 10.593H31.5792L35.8683 5.31177H54.3556C57.0831 5.31177 58.589 8.47635 56.8709 10.593L51.229 17.5402L48.9051 20.3985L44.7418 25.5277V25.5342L40.5784 30.6623H18.8901C18.5655 30.6623 18.2474 30.5704 17.9729 30.397C17.6983 30.2237 17.4785 29.9761 17.3389 29.6829C17.1993 29.3897 17.1455 29.063 17.1839 28.7405C17.2224 28.418 17.3513 28.113 17.5559 27.8609L19.4457 25.5397H28.8397" fill="#E14446"/>
<path id="Vector_3" d="M45.9486 12.5676L41.8903 17.5655L39.5587 20.4107L33.9551 22.9069L32.9796 20.3976L35.2696 17.5819L26.0396 17.6071L13.8438 17.6388L17.9021 12.6409L30.0979 12.6092L39.5117 12.584L45.9486 12.5676Z" fill="#E14446"/>
<path id="Vector_4" d="M35.8389 5.75928L19.4688 25.4293" stroke="#E14446" stroke-width="6" stroke-miterlimit="10"/>
<path id="Vector_5" d="M5.2605 44C4.22595 44 3.31462 43.7743 2.5265 43.3229C1.75411 42.8873 1.12003 42.2428 0.696903 41.4633C0.256879 40.6369 0.0348057 39.7119 0.0516754 38.7757C0.0430431 38.0324 0.17361 37.2941 0.436625 36.5989C0.677189 35.9645 1.04318 35.3853 1.51273 34.8957C1.97965 34.4157 2.54176 34.0386 3.16297 33.7887C3.82956 33.521 4.54222 33.3868 5.2605 33.3938C6.43649 33.3938 7.40797 33.6421 8.17495 34.1387C8.96517 34.6608 9.58643 35.4016 9.96299 36.2707L7.95951 37.0692C7.68157 36.5813 7.28177 36.1738 6.7992 35.8868C6.32673 35.633 5.79662 35.506 5.2605 35.5181C4.72324 35.5086 4.19367 35.6467 3.72946 35.9174C3.28009 36.1856 2.91487 36.5744 2.67522 37.0397C2.40808 37.5784 2.2781 38.1747 2.29684 38.7757C2.28518 39.349 2.41713 39.916 2.68069 40.4252C2.92211 40.8873 3.28709 41.2732 3.73492 41.5399C4.19892 41.8111 4.72864 41.9493 5.26597 41.9392C5.7567 41.9497 6.24324 41.8468 6.68765 41.6383C7.09078 41.4441 7.43418 41.1448 7.68174 40.772C7.93779 40.3783 8.08357 39.9231 8.10387 39.4539L8.73597 40.2196H5.09865V38.2506H10.0997C10.1408 38.4191 10.1707 38.5901 10.1894 38.7626C10.2101 38.9441 10.2203 39.1267 10.22 39.3095C10.2285 39.9712 10.0923 40.6268 9.82082 41.2303C9.56236 41.7926 9.19342 42.297 8.73597 42.7136C8.27782 43.1307 7.74347 43.4553 7.16228 43.6697C6.55337 43.8933 5.90913 44.0052 5.2605 44Z" fill="#E14446"/>
<path id="Vector_6" d="M14.817 44.0001C14.1131 44.0148 13.4174 43.8463 12.7982 43.5111C12.2257 43.1947 11.7553 42.7215 11.4421 42.1471C11.1258 41.5239 10.9609 40.8349 10.9609 40.136C10.9609 39.4371 11.1258 38.748 11.4421 38.1249C11.7553 37.5505 12.2257 37.0773 12.7982 36.7608C13.425 36.4387 14.1194 36.2708 14.8241 36.2708C15.5287 36.2708 16.2232 36.4387 16.85 36.7608C17.4233 37.0788 17.8958 37.5514 18.2137 38.1249C18.5353 38.7464 18.7031 39.4361 18.7031 40.136C18.7031 40.8358 18.5353 41.5255 18.2137 42.1471C17.8973 42.7198 17.4268 43.1923 16.8555 43.5111C16.2299 43.8484 15.5274 44.0169 14.817 44.0001ZM14.817 41.8616C15.0386 41.8702 15.2596 41.8324 15.4658 41.7506C15.672 41.6689 15.8589 41.545 16.0145 41.3868C16.3207 41.0696 16.4738 40.6561 16.4738 40.1431C16.4738 39.63 16.3207 39.1991 16.0145 38.8775C15.8601 38.7174 15.6735 38.5917 15.4672 38.5088C15.2608 38.4258 15.0392 38.3875 14.817 38.3962C14.6 38.3893 14.3841 38.4279 14.1829 38.5094C13.9818 38.591 13.7999 38.7138 13.649 38.8698C13.3428 39.187 13.1897 39.6063 13.1897 40.1278C13.1897 40.6492 13.3428 41.0689 13.649 41.3868C13.7999 41.543 13.9817 41.6659 14.1828 41.7477C14.384 41.8294 14.6 41.8682 14.817 41.8616Z" fill="#E14446"/>
<path id="Vector_7" d="M22.1033 43.8196H19.9062V33.5591H26.3683V35.6834H21.3378L22.1033 34.7645V43.8196ZM21.4559 39.932V37.823H25.6116V39.932H21.4559Z" fill="black"/>
<path id="Vector_8" d="M29.0643 35.6537L29.8299 34.7644V42.6141L28.9922 41.7291H34.1583V43.8228H27.6328V33.5623H34.1551V35.657L29.0643 35.6537ZM29.1092 39.7219V37.6271H33.3272V39.7219H29.1092Z" fill="black"/>
<path id="Vector_9" d="M35.1055 43.8196L36.9132 33.5591H38.8817L41.3368 40.5807H41.2274L43.6826 33.5591H45.6511L47.4741 43.8196H45.2596L44.552 39.2396C44.4609 38.627 44.3781 38.0166 44.3038 37.4084C44.2294 36.8002 44.1663 36.1902 44.1146 35.5784H44.7412C44.5808 36.2413 44.4226 36.864 44.2666 37.4467C44.1105 38.0294 43.9283 38.6168 43.7198 39.2089L42.1526 43.6938H40.4226L38.8565 39.2089C38.6451 38.6066 38.4628 38.0166 38.3097 37.4391C38.1566 36.8615 37.9984 36.2416 37.8351 35.5795H38.453C38.4027 36.192 38.3422 36.8021 38.2714 37.4095C38.2007 38.017 38.1154 38.6274 38.0155 39.2407L37.3047 43.8196H35.1055Z" fill="black"/>
<path id="Vector_10" d="M47.9531 43.8196L51.5981 33.5591H54.0237L57.4882 43.8196H55.2584L52.4566 35.0686H53.1795L50.1677 43.8196H47.9531ZM50.1972 39.8696H55.02V41.9042H50.1972V39.8696Z" fill="black"/>
</g>
<defs>
<clipPath id="clip0_1919_45138">
<rect width="57.6" height="44" fill="white"/>
</clipPath>
</defs>
</svg>